<svg width="20.000000" height="20.000000" viewBox="0 0 20 20" fill="none" xmlns="http://www.w3.org/2000/svg" xmlns:xlink="http://www.w3.org/1999/xlink">
	<desc>
			Created with Pixso.
	</desc>
	<defs/>
	<path id="Shape" d="M5.1416 3.33325C5.49451 2.33325 6.43958 1.66455 7.5 1.66455C8.5603 1.66455 9.50549 2.33325 9.85828 3.33325L18.3333 3.33325L18.3333 4.99988L9.85828 4.99988C9.50549 5.99988 8.5603 6.66858 7.5 6.66858C6.43958 6.66858 5.49451 5.99988 5.1416 4.99988L1.66663 4.99988L1.66663 3.33325L5.1416 3.33325ZM8.33325 4.16663C8.33325 4.62683 7.96021 4.99988 7.5 4.99988C7.03967 4.99988 6.66663 4.62683 6.66663 4.16663C6.66663 3.7063 7.03967 3.33325 7.5 3.33325C7.96021 3.33325 8.33325 3.7063 8.33325 4.16663ZM12.5 7.49792C11.4396 7.49792 10.4945 8.16663 10.1416 9.16663L1.66663 9.16663L1.66663 10.8333L10.1416 10.8333C10.4945 11.8333 11.4396 12.502 12.5 12.502C13.5603 12.502 14.5055 11.8333 14.8583 10.8333L18.3333 10.8333L18.3333 9.16663L14.8583 9.16663C14.5055 8.16663 13.5603 7.49792 12.5 7.49792ZM12.5 10.8333C12.9602 10.8333 13.3333 10.4602 13.3333 9.99988C13.3333 9.53967 12.9602 9.16663 12.5 9.16663C12.0397 9.16663 11.6666 9.53967 11.6666 9.99988C11.6666 10.4602 12.0397 10.8333 12.5 10.8333ZM5.1416 14.9999C5.49451 14 6.43958 13.3312 7.5 13.3312C8.5603 13.3312 9.50549 14 9.85828 14.9999L18.3333 14.9999L18.3333 16.6666L9.85828 16.6666C9.50549 17.6665 8.5603 18.3353 7.5 18.3353C6.43958 18.3353 5.49451 17.6665 5.1416 16.6666L1.66663 16.6666L1.66663 14.9999L5.1416 14.9999ZM8.33325 15.8333C8.33325 16.2935 7.96021 16.6666 7.5 16.6666C7.03967 16.6666 6.66663 16.2935 6.66663 15.8333C6.66663 15.373 7.03967 14.9999 7.5 14.9999C7.96021 14.9999 8.33325 15.373 8.33325 15.8333Z" clip-rule="evenodd" fill="#000000" fill-opacity="1.000000" fill-rule="evenodd"/>
</svg>
